Coordinates
version=1
nRows=36
nColumns=30
inDegrees=yes

Units are S.I. units (second, meters, Newtons, ...)
Angles are in degrees.

endheader
time	floatyaw	floatroll	floatpitch	floatx	floaty	floatz	pro_sup_l	deviation_l	flexion_l	cmc_flexion_l	cmc_abduction_l	mp_flexion_l	ip_flexion_l	2mcp_flexion_l	2mcp_abduction_l	2pm_flexion_l	2md_flexion_l	3mcp_flexion_l	3mcp_abduction_l	3pm_flexion_l	3md_flexion_l	4mcp_flexion_l	4mcp_abduction_l	4pm_flexion_l	4md_flexion_l	5mcp_flexion_l	5mcp_abduction_l	5pm_flexion_l	5md_flexion_l
-1.495000	-160.147433	-5.066637	-73.570646	0.081796	-0.182259	-0.017374	102.534886	3.535980	-1.169325	16.930385	5.756242	-25.019957	-41.055134	29.054127	7.117603	42.649121	29.046778	24.932442	4.230070	43.098534	28.041292	13.723950	-4.457814	50.812315	34.984245	1.976625	-8.510598	59.668328	41.725048
-1.485000	-160.147433	-5.066637	-73.570646	0.081799	-0.182254	-0.017374	102.555943	3.548738	-1.165326	16.900930	5.730428	-25.001409	-41.032239	29.045641	7.125304	42.654688	29.053507	24.915684	4.228955	43.115576	28.048565	13.714872	-4.460057	50.820149	34.985387	1.981216	-8.514124	59.658525	41.722891
-1.475000	-160.147433	-5.066637	-73.570646	0.081800	-0.182247	-0.017372	102.579703	3.561535	-1.161156	16.863356	5.712853	-24.975865	-40.998087	29.037632	7.135416	42.662901	29.057540	24.896766	4.229541	43.139955	28.057035	13.708762	-4.460521	50.827058	34.987274	1.993385	-8.516230	59.644317	41.714386
-1.465000	-160.147433	-5.066637	-73.570646	0.081799	-0.182240	-0.017371	102.597042	3.569797	-1.155709	16.816768	5.719289	-24.948965	-40.954625	29.030540	7.146197	42.675229	29.064036	24.875142	4.231807	43.169871	28.069218	13.701612	-4.458942	50.835028	34.991306	2.004871	-8.516045	59.631018	41.704408
-1.455000	-160.147433	-5.066637	-73.570646	0.081796	-0.182236	-0.017371	102.601511	3.570802	-1.148803	16.764394	5.757358	-24.927713	-40.908657	29.026713	7.155758	42.691042	29.074719	24.851987	4.235022	43.202404	28.086260	13.690994	-4.455870	50.845630	34.997568	2.007558	-8.514162	59.625144	41.698874
-1.445000	-160.147433	-5.066637	-73.570646	0.081791	-0.182233	-0.017371	102.592554	3.564882	-1.141441	16.712350	5.821557	-24.918004	-40.869916	29.029365	7.162778	42.708304	29.086382	24.830034	4.238168	43.234253	28.106688	13.677163	-4.452519	50.859325	35.004885	1.997336	-8.512352	59.631366	41.702070
-1.435000	-160.147433	-5.066637	-73.570646	0.081786	-0.182234	-0.017373	102.575994	3.555211	-1.135205	16.666909	5.894597	-24.922190	-40.847072	29.040372	7.167025	42.724603	29.092826	24.812292	4.240435	43.262737	28.126909	13.662262	-4.450143	50.875499	35.011726	1.976040	-8.512373	59.649702	41.714558
-1.425000	-160.147433	-5.066637	-73.570646	0.081782	-0.182234	-0.017375	102.561378	3.546301	-1.131157	16.631752	5.954476	-24.938194	-40.844156	29.058413	7.169355	42.738171	29.088704	24.800555	4.241501	43.286436	28.142865	13.648576	-4.449274	50.892792	35.017094	1.950339	-8.514624	59.674834	41.732875
-1.415000	-160.147433	-5.066637	-73.570646	0.081780	-0.182233	-0.017376	102.557361	3.542018	-1.128977	16.606654	5.983923	-24.960746	-40.859386	29.078951	7.171086	42.748184	29.072547	24.794719	4.241488	43.304866	28.151612	13.637260	-4.449392	50.909141	35.020656	1.928071	-8.517693	59.698332	41.751252
-1.405000	-160.147433	-5.066637	-73.570646	0.081781	-0.182227	-0.017377	102.567478	3.544092	-1.126965	16.588089	5.977809	-24.983860	-40.886495	29.096509	7.173089	42.753818	29.047332	24.793213	4.240697	43.317506	28.152045	13.628406	-4.449339	50.921515	35.022183	1.914201	-8.519183	59.712532	41.764267
-1.395000	-160.147433	-5.066637	-73.570646	0.081786	-0.182215	-0.017377	102.588719	3.551767	-1.122995	16.571152	5.944933	-25.002968	-40.917282	29.107882	7.175270	42.752781	29.018927	24.794003	4.239424	43.323114	28.144806	13.622048	-4.448228	50.926111	35.021095	1.908959	-8.517242	59.713576	41.768803
-1.385000	-160.147433	-5.066637	-73.570646	0.081795	-0.182199	-0.017374	102.613760	3.562653	-1.115787	16.551834	5.903154	-25.015871	-40.944248	29.114026	7.176846	42.740994	28.993582	24.795479	4.238010	43.319970	28.131636	13.618893	-4.446212	50.919756	35.016748	1.909155	-8.511703	59.701972	41.764427
-1.375000	-160.147433	-5.066637	-73.570646	0.081805	-0.182181	-0.017371	102.635377	3.574215	-1.105572	16.528739	5.870391	-25.022801	-40.962816	29.119296	7.177155	42.714352	28.975441	24.796816	4.237010	43.306791	28.114486	13.619933	-4.444583	50.902145	35.009260	1.911311	-8.504103	59.681145	41.752632
-1.365000	-160.147433	-5.066637	-73.570646	0.081816	-0.182163	-0.017366	102.650210	3.585052	-1.093691	16.503507	5.856422	-25.026083	-40.972646	29.128722	7.176264	42.671589	28.964862	24.797807	4.237160	43.283791	28.094932	13.625219	-4.445092	50.877399	35.000116	1.914152	-8.496731	59.655595	41.735978
-1.355000	-160.147433	-5.066637	-73.570646	0.081827	-0.182145	-0.017362	102.659707	3.595255	-1.081564	16.479599	5.859809	-25.029316	-40.977208	29.145332	7.175008	42.616145	28.958338	24.798289	4.239067	43.253636	28.074410	13.632933	-4.448915	50.853438	34.991939	1.918870	-8.491454	59.629840	41.717664
-1.345000	-160.147433	-5.066637	-73.570646	0.081836	-0.182128	-0.017357	102.668033	3.605667	-1.069960	16.459951	5.871088	-25.035878	-40.981485	29.169187	7.174584	42.555637	28.950337	24.797617	4.242792	43.221958	28.055096	13.639718	-4.455869	50.839002	34.987469	1.927396	-8.489054	59.608071	41.701249
-1.335000	-160.147433	-5.066637	-73.570646	0.081841	-0.182111	-0.017352	102.678612	3.616577	-1.059130	16.444932	5.879675	-25.047239	-40.988963	29.198345	7.176056	42.499230	28.936323	24.794669	4.247685	43.196724	28.040486	13.642272	-4.464353	50.839788	34.988299	1.940227	-8.489265	59.593759	41.690004
-1.325000	-160.147433	-5.066637	-73.570646	0.081843	-0.182094	-0.017346	102.691536	3.626820	-1.049371	16.431885	5.880080	-25.062024	-40.999663	29.230493	7.179905	42.454392	28.915359	24.788410	4.252650	43.185882	28.034709	13.639099	-4.472053	50.855780	34.994084	1.955285	-8.491179	59.588695	41.685894
-1.315000	-160.147433	-5.066637	-73.570646	0.081841	-0.182079	-0.017340	102.703307	3.634015	-1.041199	16.416493	5.873983	-25.076486	-41.010092	29.263668	7.185682	42.424583	28.890790	24.778529	4.256695	43.193748	28.040543	13.631087	-4.477004	50.881207	35.002680	1.968292	-8.493623	59.591957	41.688829
-1.305000	-160.147433	-5.066637	-73.570646	0.081836	-0.182068	-0.017336	102.708897	3.635886	-1.034896	16.395113	5.867734	-25.086211	-41.014805	29.295707	7.191962	42.408756	28.868679	24.765664	4.259462	43.218088	28.057320	13.620537	-4.478401	50.907125	35.011180	1.974325	-8.495458	59.599967	41.696872
-1.295000	-160.147433	-5.066637	-73.570646	0.081832	-0.182062	-0.017335	102.704752	3.631786	-1.030068	16.366858	5.867722	-25.088219	-41.008799	29.323521	7.196838	42.402549	28.854969	24.751192	4.261353	43.250176	28.080358	13.609596	-4.476779	50.925326	35.017275	1.969905	-8.495963	59.608308	41.707348
-1.285000	-160.147433	-5.066637	-73.570646	0.081830	-0.182063	-0.017336	102.690949	3.623327	-1.025874	16.334358	5.876750	-25.082460	-40.989917	29.343597	7.198888	42.400288	28.852861	24.736865	4.263170	43.278462	28.102666	13.599386	-4.473570	50.931642	35.020167	1.954774	-8.495327	59.614370	41.718128
-1.275000	-160.147433	-5.066637	-73.570646	0.081831	-0.182069	-0.017339	102.671366	3.613685	-1.021822	16.302716	5.893083	-25.071832	-40.960306	29.353825	7.198091	42.396722	28.861495	24.724558	4.265503	43.293922	28.118064	13.590280	-4.470366	50.927132	35.020570	1.932451	-8.494848	59.618964	41.728251
-1.265000	-160.147433	-5.066637	-73.570646	0.081835	-0.182077	-0.017341	102.652073	3.606107	-1.018370	16.277181	5.911856	-25.060625	-40.926032	29.355273	7.196061	42.388104	28.876444	24.716049	4.268306	43.294018	28.123987	13.582683	-4.468256	50.916848	35.020008	1.909135	-8.496395	59.625572	41.737601
-1.255000	-160.147433	-5.066637	-73.570646	0.081839	-0.182087	-0.017343	102.638991	3.602631	-1.016775	16.260887	5.927458	-25.052329	-40.894787	29.352318	7.195271	42.372993	28.891948	24.712578	4.270955	43.283305	28.122503	13.577415	-4.467484	50.907097	35.020064	1.891414	-8.501287	59.637690	41.746099
-1.245000	-160.147433	-5.066637	-73.570646	0.081842	-0.182095	-0.017344	102.635889	3.603620	-1.018335	16.253877	5.935812	-25.048326	-40.872943	29.350862	7.197675	42.352908	28.903954	24.714229	4.272708	43.270728	28.119126	13.575411	-4.467528	50.902680	35.021977	1.883898	-8.509351	59.656151	41.753142
-1.235000	-160.147433	-5.066637	-73.570646	0.081840	-0.182102	-0.017346	102.643176	3.607993	-1.023613	16.253638	5.936041	-25.048260	-40.863632	29.355829	7.203566	42.332166	28.912230	24.719665	4.273192	43.265169	28.120032	13.577091	-4.467518	50.905375	35.026532	1.887839	-8.518941	59.678265	41.757793
-1.225000	-160.147433	-5.066637	-73.570646	0.081834	-0.182107	-0.017348	102.657755	3.613779	-1.032095	16.256420	5.930937	-25.051418	-40.866648	29.369295	7.211409	42.316366	28.920098	24.726562	4.272588	43.271456	28.129015	13.581948	-4.466814	50.914036	35.033894	1.901096	-8.527854	59.699133	41.759441
-1.215000	-160.147433	-5.066637	-73.570646	0.081826	-0.182112	-0.017352	102.674124	3.618750	-1.042272	16.258506	5.925624	-25.057758	-40.879516	29.389806	7.218731	42.310094	28.931931	24.732499	4.271434	43.288682	28.145729	13.588636	-4.465422	50.925784	35.043328	1.919163	-8.534410	59.713924	41.758258
-1.205000	-160.147433	-5.066637	-73.570646	0.081816	-0.182116	-0.017356	102.686483	3.621060	-1.051975	16.257037	5.924912	-25.067799	-40.898643	29.412800	7.223432	42.315326	28.950232	24.735676	4.270241	43.311570	28.166115	13.595450	-4.464036	50.937367	35.053107	1.936694	-8.537971	59.719631	41.755016
-1.195000	-160.147433	-5.066637	-73.570646	0.081807	-0.182120	-0.017362	102.690930	3.619722	-1.058910	16.250468	5.931120	-25.081792	-40.920035	29.431960	7.224675	42.331588	28.974378	24.735116	4.269230	43.333914	28.184747	13.600858	-4.463652	50.946196	35.060993	1.948969	-8.538806	59.715833	41.750651
-1.185000	-160.147433	-5.066637	-73.570646	0.081802	-0.182124	-0.017368	102.686694	3.614788	-1.061391	16.238814	5.943742	-25.099098	-40.939963	29.441242	7.222991	42.357551	29.001616	24.730451	4.268354	43.352024	28.197724	13.603676	-4.464975	50.951068	35.065297	1.952915	-8.537710	59.704834	41.746234
-1.175000	-160.147433	-5.066637	-73.570646	0.081801	-0.182126	-0.017375	102.676012	3.607228	-1.059012	16.223683	5.960533	-25.118232	-40.955917	29.437085	7.219816	42.392256	29.029017	24.721686	4.267540	43.366118	28.204435	13.602834	-4.467974	50.952649	35.065920	1.947510	-8.535769	59.691423	41.743376
-1.165000	-160.147433	-5.066637	-73.570646	0.081804	-0.182127	-0.017381	102.662947	3.598686	-1.052871	16.207897	5.978637	-25.137430	-40.967561	29.420002	7.216941	42.434494	29.054608	24.709124	4.266863	43.379143	28.207335	13.597113	-4.471888	50.953487	35.064643	1.933539	-8.534331	59.681920	41.744355
-1.155000	-160.147433	-5.066637	-73.570646	0.081809	-0.182127	-0.017388	102.651762	3.591117	-1.045058	16.194632	5.994965	-25.155315	-40.976960	29.394663	7.216071	42.480901	29.077014	24.693394	4.266454	43.394243	28.210212	13.585287	-4.475676	50.957226	35.064367	1.912817	-8.534867	59.682172	41.751438
-1.145000	-160.147433	-5.066637	-73.570646	0.081815	-0.182126	-0.017393	102.645472	3.586298	-1.037623	16.186356	6.006205	-25.171382	-40.987677	29.368219	7.218473	42.524887	29.094521	24.675453	4.266274	43.412750	28.216155	13.566797	-4.478576	50.967040	35.067723	1.887250	-8.538418	59.695035	41.765663
